# File created by Blade
# Date/Time:  Thu Jan 22 16:25:48 2015
# Frame Rate: 120.000 fps
#------------------------------------------------------
:FULLY-SPECIFIED
:DEGREES
781
root 3.856156 39.946533 8.419958 65.695932 16.343693 51.561159
RightUpLeg -29.993986 -25.363763 -43.251986
RightLeg -7.772650 -0.000000 0.000000
RightFoot -5.325290 -25.821753 15.499824
RightToeBase 12.643874 -0.000000 -0.000000
LeftUpLeg 17.764417 -25.715868 11.418162
LeftLeg 131.400351 -0.000000 -0.000000
LeftFoot 18.500544 19.734764 -31.840277
LeftToeBase 5.003868 -0.000000 -0.000000
Spine 13.213220 -6.178513 -6.311182
RightShoulder -14.923781 -5.569720 -47.244294
RightArm 52.584782 65.722659 28.774899
RightForeArm -0.902474 -0.000000 12.801740
RightHand 8.158564 -0.000000 -12.861832
RightHandThumb1 -24.326973 -0.000000 -32.862282
LeftShoulder -35.348628 35.880440 -13.871337
LeftArm 22.388170 -23.304786 -82.327465
LeftForeArm 54.465925 -0.000000 10.937838
LeftHand -17.327909 -0.000000 -15.861108
LeftHandThumb1 -26.253704 0.000000 33.147579
Head -15.491421 -23.328316 -13.711559
782
root 3.852656 39.946532 8.412334 65.750745 16.356133 51.583455
RightUpLeg -30.016986 -25.383105 -43.265427
RightLeg -7.774335 -0.000000 0.000000
RightFoot -5.315708 -25.870927 15.482303
RightToeBase 12.609882 -0.000000 -0.000000
LeftUpLeg 17.847299 -25.702904 11.385810
LeftLeg 131.352465 -0.000000 -0.000000
LeftFoot 18.459358 19.772878 -31.885375
LeftToeBase 4.961900 -0.000000 -0.000000
Spine 13.203899 -6.138042 -6.302290
RightShoulder -14.914324 -5.593498 -47.178154
RightArm 52.813862 65.766776 28.871365
RightForeArm -0.871464 0.000000 12.651952
RightHand 8.314241 -0.000000 -13.129019
RightHandThumb1 -24.326973 -0.000000 -32.862282
LeftShoulder -35.351468 35.874018 -13.821291
LeftArm 22.331955 -23.315801 -82.336401
LeftForeArm 54.549879 -0.000000 10.985159
LeftHand -17.257780 -0.000000 -15.870508
LeftHandThumb1 -26.253704 0.000000 33.147579
Head -15.483082 -23.354121 -13.603034
783
root 3.848189 39.947299 8.404430 65.817005 16.363691 51.605216
RightUpLeg -30.054342 -25.392776 -43.291458
RightLeg -7.757925 -0.000000 0.000000
RightFoot -5.307006 -25.929895 15.466447
RightToeBase 12.592594 -0.000000 -0.000000
LeftUpLeg 17.910732 -25.703641 11.357906
LeftLeg 131.304184 -0.000000 -0.000000
LeftFoot 18.440412 19.783780 -31.897449
LeftToeBase 5.091062 -0.000000 -0.000000
Spine 13.192842 -6.078495 -6.303155
RightShoulder -14.928068 -5.631586 -47.126150
RightArm 52.652573 65.754381 28.679125
RightForeArm -0.793369 0.000000 12.674684
RightHand 8.284060 0.000000 -13.155363
RightHandThumb1 -24.326973 -0.000000 -32.862282
LeftShoulder -35.348123 35.872031 -13.776656
LeftArm 22.295038 -23.309405 -82.328910
LeftForeArm 54.661966 -0.000000 11.030060
LeftHand -17.259279 -0.000000 -15.886551
LeftHandThumb1 -26.253704 0.000000 33.147579
Head -15.514994 -23.394892 -13.433608
784
root 3.843978 39.947806 8.396218 65.886253 16.366687 51.624177
RightUpLeg -30.098669 -25.404242 -43.320777
RightLeg -7.739683 -0.000000 0.000000
RightFoot -5.287501 -25.969204 15.456368
RightToeBase 12.564283 -0.000000 -0.000000
LeftUpLeg 17.971788 -25.707257 11.331202
LeftLeg 131.252342 -0.000000 -0.000000
LeftFoot 18.431264 19.766356 -31.843958
LeftToeBase 5.148798 -0.000000 -0.000000
Spine 13.172588 -6.026246 -6.304433
RightShoulder -14.934619 -5.653542 -47.112624
RightArm 52.589241 65.756894 28.634532
RightForeArm -0.776244 -0.000000 12.700733
RightHand 8.419017 -0.000000 -12.963870
RightHandThumb1 -24.326973 -0.000000 -32.862282
LeftShoulder -35.352202 35.877545 -13.749467
LeftArm 22.248518 -23.254249 -82.282269
LeftForeArm 54.687217 0.000000 11.076950
LeftHand -17.276329 0.000000 -15.900744
LeftHandThumb1 -26.253704 0.000000 33.147579
Head -15.546844 -23.448432 -13.287724
785
root 3.838516 39.948340 8.387564 65.957081 16.375342 51.634821
RightUpLeg -30.143124 -25.396357 -43.353706
RightLeg -7.719679 -0.000000 0.000000
RightFoot -5.259253 -26.024338 15.438591
RightToeBase 12.500653 -0.000000 -0.000000
LeftUpLeg 18.021641 -25.710403 11.318729
LeftLeg 131.201194 -0.000000 -0.000000
LeftFoot 18.392182 19.809231 -31.927664
LeftToeBase 5.175795 -0.000000 -0.000000
Spine 13.144257 -5.988345 -6.304487
RightShoulder -14.909894 -5.657239 -47.098210
RightArm 52.473815 65.745508 28.544852
RightForeArm -0.832359 -0.000000 12.745048
RightHand 8.518007 -0.000000 -13.159833
RightHandThumb1 -24.326973 -0.000000 -32.862282
LeftShoulder -35.401985 35.940880 -13.787785
LeftArm 22.289196 -23.228143 -82.268878
LeftForeArm 54.732862 -0.000000 11.117683
LeftHand -17.295781 0.000000 -15.860577
LeftHandThumb1 -26.253704 0.000000 33.147579
Head -15.600781 -23.557388 -13.123020
786
root 3.832273 39.948893 8.379976 66.021929 16.393245 51.638702
RightUpLeg -30.177276 -25.374815 -43.376117
RightLeg -7.715059 -0.000000 0.000000
RightFoot -5.243091 -26.097764 15.435103
RightToeBase 12.483522 -0.000000 -0.000000
LeftUpLeg 18.073048 -25.718319 11.319987
LeftLeg 131.145890 -0.000000 -0.000000
LeftFoot 18.393042 19.844833 -31.936207
LeftToeBase 5.102905 -0.000000 -0.000000
Spine 13.145488 -6.000475 -6.294684
RightShoulder -14.903798 -5.605852 -47.099626
RightArm 52.376258 65.697754 28.450353
RightForeArm -0.885103 -0.000000 12.757329
RightHand 8.139765 -0.000000 -13.060194
RightHandThumb1 -24.326973 -0.000000 -32.862282
LeftShoulder -35.499826 35.944264 -13.876949
LeftArm 22.304373 -23.179046 -82.190011
LeftForeArm 54.698299 0.000000 11.157312
LeftHand -17.248246 -0.000000 -15.860267
LeftHandThumb1 -26.253704 0.000000 33.147579
Head -15.713985 -23.469717 -12.964872
787
root 3.824722 39.948982 8.372541 66.086628 16.414765 51.638512
RightUpLeg -30.202186 -25.329075 -43.407380
RightLeg -7.718670 -0.000000 0.000000
RightFoot -5.289361 -26.166584 15.511881
RightToeBase 12.578422 -0.000000 -0.000000
LeftUpLeg 18.128173 -25.735715 11.332947
LeftLeg 131.094545 -0.000000 -0.000000
LeftFoot 18.347983 19.844783 -31.945057
LeftToeBase 5.063864 -0.000000 -0.000000
Spine 13.132253 -5.993698 -6.287027
RightShoulder -14.906162 -5.580987 -47.072448
RightArm 52.271774 65.630869 28.317511
RightForeArm -0.725429 -0.000000 12.747463
RightHand 8.187078 -0.000000 -13.020840
RightHandThumb1 -24.326973 -0.000000 -32.862282
LeftShoulder -35.534587 35.948804 -13.904431
LeftArm 22.281664 -23.150440 -82.121480
LeftForeArm 54.691953 0.000000 11.189585
LeftHand -17.192078 0.000000 -15.832046
LeftHandThumb1 -26.253704 0.000000 33.147579
Head -15.777321 -23.510545 -12.823618
788
root 3.817091 39.948451 8.364679 66.154356 16.455031 51.646260
RightUpLeg -30.219751 -25.306541 -43.416337
RightLeg -7.728775 -0.000000 0.000000
RightFoot -5.174098 -26.295005 15.349137
RightToeBase 12.449319 -0.000000 -0.000000
LeftUpLeg 18.157055 -25.768372 11.373845
LeftLeg 131.032479 -0.000000 -0.000000
LeftFoot 18.366390 19.912923 -31.978450
LeftToeBase 5.014930 -0.000000 -0.000000
Spine 13.113069 -6.005247 -6.257419
RightShoulder -14.911032 -5.579515 -47.053447
RightArm 52.232950 65.563445 28.237077
RightForeArm -0.738775 -0.000000 12.683576
RightHand 8.307347 -0.000000 -13.152947
RightHandThumb1 -24.326973 -0.000000 -32.862282
LeftShoulder -35.558782 35.984668 -13.940348
LeftArm 22.300531 -23.154445 -82.092441
LeftForeArm 54.678798 -0.000000 11.196231
LeftHand -17.178010 -0.000000 -15.801889
LeftHandThumb1 -26.253704 0.000000 33.147579
Head -15.832287 -23.542998 -12.705521
789
root 3.810401 39.947846 8.357012 66.206106 16.474599 51.649670
RightUpLeg -30.234030 -25.265045 -43.442700
RightLeg -7.745196 -0.000000 0.000000
RightFoot -5.210624 -26.350959 15.392344
RightToeBase 12.502118 -0.000000 -0.000000
LeftUpLeg 18.213725 -25.803687 11.371981
LeftLeg 130.974891 -0.000000 -0.000000
LeftFoot 18.360705 19.956878 -31.980870
LeftToeBase 5.125148 -0.000000 -0.000000
Spine 13.107659 -6.017926 -6.259872
RightShoulder -14.893150 -5.590778 -47.034918
RightArm 52.140954 65.512691 28.151995
RightForeArm -0.680216 0.000000 12.705981
RightHand 8.384336 -0.000000 -13.217804
RightHandThumb1 -24.326973 -0.000000 -32.862282
LeftShoulder -35.570215 35.974942 -13.925462
LeftArm 22.264160 -23.141873 -82.046869
LeftForeArm 54.674071 -0.000000 11.190635
LeftHand -17.208960 -0.000000 -15.783743
LeftHandThumb1 -26.253704 0.000000 33.147579
Head -15.869883 -23.554929 -12.593634
790
root 3.803161 39.946509 8.349554 66.252396 16.498615 51.664438
RightUpLeg -30.225501 -25.203760 -43.487966
RightLeg -7.759887 -0.000000 0.000000
RightFoot -5.201920 -26.472308 15.339897
RightToeBase 12.442388 -0.000000 -0.000000
LeftUpLeg 18.277820 -25.866364 11.360619
LeftLeg 130.919617 -0.000000 -0.000000
LeftFoot 18.371120 19.972063 -31.999563
LeftToeBase 5.080530 -0.000000 -0.000000
Spine 13.116494 -6.024170 -6.267859
RightShoulder -14.897213 -5.615208 -47.002793
RightArm 52.394368 65.532278 28.420812
RightForeArm -0.792099 -0.000000 12.696724
RightHand 8.339079 -0.000000 -13.291058
RightHandThumb1 -24.326973 -0.000000 -32.862282
LeftShoulder -35.559954 35.979007 -13.890733
LeftArm 22.257437 -23.165274 -82.035166
LeftForeArm 54.741468 -0.000000 11.174072
LeftHand -17.203138 -0.000000 -15.780256
LeftHandThumb1 -26.253704 0.000000 33.147579
Head -15.903972 -23.609068 -12.485451
791
root 3.795988 39.945266 8.342163 66.304072 16.520737 51.682081
RightUpLeg -30.221927 -25.171231 -43.518992
RightLeg -7.790599 -0.000000 0.000000
RightFoot -5.115185 -26.597652 15.223817
RightToeBase 12.338143 -0.000000 -0.000000
LeftUpLeg 18.333584 -25.939456 11.350032
LeftLeg 130.880775 -0.000000 -0.000000
LeftFoot 18.353137 19.941261 -32.000309
LeftToeBase 5.176996 -0.000000 -0.000000
Spine 13.108848 -6.046609 -6.272357
RightShoulder -14.892120 -5.646982 -46.990710
RightArm 52.425121 65.468431 28.451628
RightForeArm -0.759073 -0.000000 12.743069
RightHand 8.177156 -0.000000 -13.388789
RightHandThumb1 -24.326973 -0.000000 -32.862282
LeftShoulder -35.547663 35.993734 -13.868990
LeftArm 22.256288 -23.188730 -82.014968
LeftForeArm 54.784089 -0.000000 11.148293
LeftHand -17.206922 0.000000 -15.780968
LeftHandThumb1 -26.253704 0.000000 33.147579
Head -15.908785 -23.658009 -12.428050
792
root 3.787355 39.944115 8.335143 66.347444 16.544554 51.703037
RightUpLeg -30.202432 -25.103077 -43.571569
RightLeg -7.813890 -0.000000 0.000000
RightFoot -5.076811 -26.752268 15.130593
RightToeBase 12.308604 -0.000000 -0.000000
LeftUpLeg 18.382134 -26.021059 11.338230
LeftLeg 130.842715 -0.000000 -0.000000
LeftFoot 18.366605 19.948561 -31.966253
LeftToeBase 5.179168 -0.000000 -0.000000
Spine 13.111702 -6.082515 -6.287002
RightShoulder -14.877420 -5.678984 -46.980908
RightArm 52.445413 65.451531 28.547267
RightForeArm -0.736800 -0.000000 12.867272
RightHand 8.154599 -0.000000 -13.173636
RightHandThumb1 -24.326973 -0.000000 -32.862282
LeftShoulder -35.534209 36.003847 -13.831586
LeftArm 22.255836 -23.223090 -82.014142
LeftForeArm 54.864380 0.000000 11.128678
LeftHand -17.215284 0.000000 -15.787535
LeftHandThumb1 -26.253704 0.000000 33.147579
Head -15.888579 -23.728429 -12.403036
